<svg width="24" height="17" viewBox="0 0 24 17" fill="none" xmlns="http://www.w3.org/2000/svg">
<path d="M12 0.65625L11.6483 0.84375L1.52326 6.09375L0.234009 6.75L1.50001 7.383V13.7108C1.05151 13.9718 0.750009 14.4458 0.750009 15C0.750009 15.3978 0.908044 15.7794 1.18935 16.0607C1.47065 16.342 1.85218 16.5 2.25001 16.5C2.64783 16.5 3.02936 16.342 3.31067 16.0607C3.59197 15.7794 3.75001 15.3978 3.75001 15C3.75001 14.4465 3.44851 13.9718 3.00001 13.7108V8.15625L4.50001 8.9295V12.75C4.50001 13.0808 4.65226 13.38 4.82851 13.5705C5.00401 13.761 5.21776 13.875 5.43751 13.992C5.88001 14.2238 6.40501 14.388 7.05451 14.5312C8.35576 14.8215 10.0898 15 12 15C13.9103 15 15.645 14.8215 16.9455 14.5312C17.5958 14.388 18.12 14.2238 18.5625 13.992C18.7823 13.875 18.996 13.761 19.1723 13.5705C19.3781 13.3463 19.4947 13.0544 19.5 12.75V8.9295L22.4768 7.40625L23.7653 6.75L22.4768 6.09375L12.3518 0.84375L12 0.65625ZM12 2.34375L20.4848 6.75L19.1483 7.4295C18.9773 7.25805 18.7794 7.11567 18.5625 7.008C18.123 6.77625 17.595 6.612 16.9455 6.46875C15.648 6.1785 13.9193 6 12 6C10.0808 6 8.35276 6.1785 7.05451 6.46875C6.40426 6.612 5.87701 6.77625 5.43751 7.008C5.22061 7.11567 5.02276 7.25805 4.85176 7.4295L3.51526 6.75L12 2.34375ZM12 7.5C13.8308 7.5 15.4778 7.66725 16.617 7.92225C17.1855 8.0475 17.6423 8.1945 17.883 8.31975C17.9588 8.361 17.9708 8.391 18 8.41425V11.2733C17.6865 11.1593 17.3438 11.0565 16.9455 10.9688C15.6443 10.6785 13.9103 10.5 12 10.5C10.0898 10.5 8.35501 10.6785 7.05451 10.9688C6.65626 11.0565 6.31351 11.1593 6.00001 11.2733V8.415C6.03001 8.39175 6.04126 8.3625 6.11701 8.32125C6.35701 8.19525 6.81451 8.04825 7.38301 7.923C8.52301 7.66725 10.1693 7.5 12 7.5ZM12 12C13.8195 12 15.4748 12.1672 16.617 12.4222C16.9709 12.4965 17.3164 12.6064 17.6483 12.75C17.3164 12.8939 16.9709 13.004 16.617 13.0785C15.4748 13.3335 13.8195 13.5 12 13.5C10.1805 13.5 8.52526 13.3328 7.38301 13.0778C7.02911 13.0035 6.68361 12.8936 6.35176 12.75C6.68359 12.6061 7.02909 12.496 7.38301 12.4215C8.52526 12.1673 10.1805 12 12 12Z" fill="#151617"/>
</svg>
