<svg width="20" height="18" viewBox="0 0 20 18" fill="none" xmlns="http://www.w3.org/2000/svg">
<path d="M3.25 -1.06977e-07C2.54425 -1.06977e-07 1.8145 0.26625 1.234 0.77325C0.655 1.28025 0.25 2.0595 0.25 3C0.25 3.79725 0.58375 4.47675 1 5.016C1.41625 5.5545 1.92025 5.97975 2.383 6.39825C3.3085 7.236 4 7.9245 4 9C4 9.114 3.889 9.39 3.742 9.60975C3.59575 9.82875 3.46075 9.96075 3.46075 9.96075L4.53925 11.016C4.53925 11.016 4.77925 10.776 5.008 10.4295C5.20375 10.134 5.41825 9.753 5.47675 9.258C5.5615 9.501 5.64325 9.75 5.73475 9.984C6.25 11.3145 6.84475 12.507 7.51525 13.4062C7.759 13.7347 8.01025 14.0243 8.28925 14.2732C6.739 14.385 5.5 15.6735 5.5 17.25V18H14.5V17.25C14.5 15.6562 13.237 14.361 11.6642 14.2732C11.9576 14.0111 12.2244 13.7207 12.4608 13.4062C13.135 12.51 13.7207 11.3138 14.242 9.984C14.3395 9.735 14.4325 9.46875 14.5233 9.2115C14.5735 9.72675 14.7902 10.125 14.992 10.4295C15.2207 10.7753 15.4608 11.016 15.4608 11.016L16.5392 9.96075C16.5392 9.96075 16.4042 9.82875 16.258 9.60975C16.111 9.39 16 9.114 16 9C16 7.9245 16.6915 7.236 17.617 6.39825C18.0798 5.97975 18.5845 5.5545 19 5.01525C19.4163 4.47675 19.75 3.79725 19.75 3C19.75 2.0595 19.345 1.28025 18.7653 0.77325C18.2082 0.281861 17.4928 0.00738526 16.75 -1.06977e-07C16.0236 -0.00193012 15.3222 0.265256 14.7812 0.75H5.21875C4.67776 0.265256 3.97639 -0.00193012 3.25 -1.06977e-07ZM3.25 1.5C3.60475 1.5 3.83275 1.611 4 1.71075C4.02025 3.24075 4.28425 4.97475 4.7035 6.6795C4.3045 6.14025 3.8065 5.6925 3.367 5.2965C2.89225 4.869 2.4595 4.47375 2.17225 4.10175C1.885 3.72975 1.75 3.40725 1.75 3C1.75 2.475 1.95475 2.15025 2.242 1.89825C2.53 1.64625 2.9245 1.5 3.25 1.5ZM16.75 1.5C17.0755 1.5 17.47 1.64625 17.758 1.89825C18.0452 2.15025 18.25 2.47575 18.25 3C18.25 3.40725 18.115 3.72975 17.8278 4.10175C17.5413 4.47375 17.1077 4.869 16.633 5.29725C16.1845 5.7015 15.6775 6.16725 15.2733 6.72675C15.7037 5.00925 15.9797 3.261 16 1.71075C16.2245 1.56985 16.4849 1.49668 16.75 1.5ZM5.59375 2.25H14.4062C14.2922 4.47975 13.7148 7.1985 12.8358 9.4455C12.3498 10.6875 11.7873 11.7652 11.242 12.492C10.6975 13.2188 10.1995 13.5 9.97675 13.5C9.757 13.5 9.27625 13.2188 8.73475 12.492C8.1925 11.766 7.624 10.6905 7.14025 9.4455C6.26725 7.1955 5.70775 4.46775 5.59375 2.25ZM9.25 4.5V8.25H10.75V4.5H9.25ZM8.5 15.75H11.5C12.0393 15.75 12.4075 16.0808 12.6722 16.5H7.3285C7.59175 16.0808 7.96075 15.75 8.5 15.75Z" fill="#151617"/>
</svg>
