<svg width="18" height="18" viewBox="0 0 18 18" fill="none" xmlns="http://www.w3.org/2000/svg">
<path d="M4.71077 0.960754L2.25002 3.42225L1.28927 2.46L0.210022 3.54L1.71002 5.04L2.24927 5.55525L2.78852 5.04L5.78852 2.04L4.71077 0.960754ZM8.25002 2.25V3.75H18V2.25H8.25002ZM4.71077 6.96075L2.25002 9.4215L1.28927 8.4615L0.210772 9.53925L1.71077 11.0393L2.25002 11.5545L2.78927 11.0393L5.78927 8.03925L4.71077 6.96075ZM8.25002 8.25V9.75H18V8.25H8.25002ZM4.71077 12.9608L2.25002 15.4223L1.28927 14.46L0.210022 15.54L1.71002 17.04L2.24927 17.5553L2.78852 17.04L5.78852 14.04L4.71077 12.9608ZM8.25002 14.25V15.75H18V14.25H8.25002Z" fill="#151617"/>
</svg>
