<svg width="192" height="88" viewBox="0 0 192 88" fill="none" xmlns="http://www.w3.org/2000/svg">
<path d="M24.9379 78.0057C22.5033 78.0057 20.8478 77.3642 19.9714 76.0813C19.1112 74.7983 18.6811 72.6884 18.6811 69.7516C18.6811 66.8147 19.1193 64.728 19.9957 63.4914C20.8722 62.2394 22.5196 61.6134 24.9379 61.6134C26.3824 61.6134 27.973 61.8066 29.7096 62.193L29.6122 64.2797C28.1515 64.0324 26.6908 63.9088 25.23 63.9088C23.7693 63.9088 22.7793 64.3261 22.2599 65.1608C21.7405 65.98 21.4808 67.5335 21.4808 69.8211C21.4808 72.0933 21.7324 73.6468 22.2355 74.4815C22.7387 75.3007 23.7206 75.7103 25.1813 75.7103C26.6421 75.7103 28.119 75.5944 29.6122 75.3625L29.6853 77.4956C28.0135 77.8357 26.4311 78.0057 24.9379 78.0057Z" fill="#151617"/>
<path d="M32.7079 67.4098C33.5519 66.4051 34.9477 65.9027 36.8953 65.9027C38.843 65.9027 40.2307 66.4051 41.0584 67.4098C41.9024 68.4145 42.3244 69.9216 42.3244 71.931C42.3244 73.9405 41.9186 75.4553 41.1071 76.4754C40.2956 77.4956 38.8917 78.0057 36.8953 78.0057C34.899 78.0057 33.4951 77.4956 32.6836 76.4754C31.872 75.4553 31.4663 73.9405 31.4663 71.931C31.4663 69.9216 31.8802 68.4145 32.7079 67.4098ZM34.7042 74.9452C35.0775 75.5635 35.8079 75.8726 36.8953 75.8726C37.9828 75.8726 38.7131 75.5635 39.0864 74.9452C39.4597 74.3269 39.6464 73.3144 39.6464 71.9078C39.6464 70.5012 39.4435 69.5043 39.0377 68.9169C38.6482 68.3295 37.9341 68.0358 36.8953 68.0358C35.8566 68.0358 35.1343 68.3295 34.7286 68.9169C34.3391 69.5043 34.1443 70.5012 34.1443 71.9078C34.1443 73.3144 34.3309 74.3269 34.7042 74.9452Z" fill="#151617"/>
<path d="M54.8933 61.3351V77.7506H52.264V77.1478C51.0792 77.7197 49.9918 78.0057 49.0017 78.0057C47.4111 78.0057 46.2426 77.5497 45.496 76.6377C44.7656 75.7258 44.4004 74.1955 44.4004 72.047C44.4004 69.8984 44.8062 68.3372 45.6177 67.3634C46.4454 66.3896 47.7276 65.9027 49.4643 65.9027C50.0486 65.9027 50.9737 66.0032 52.2397 66.2041V61.3351H54.8933ZM51.8258 75.3393L52.2397 75.177V68.3141C51.2658 68.1595 50.3651 68.0822 49.5373 68.0822C47.898 68.0822 47.0784 69.3806 47.0784 71.9774C47.0784 73.3995 47.2651 74.3887 47.6384 74.9452C48.0279 75.4862 48.6365 75.7567 49.4643 75.7567C50.292 75.7567 51.0792 75.6176 51.8258 75.3393Z" fill="#151617"/>
<path d="M66.7749 75.6639L67.4566 75.5944L67.5052 77.4724C65.655 77.8279 64.0157 78.0057 62.5875 78.0057C60.7859 78.0057 59.4875 77.5342 58.6922 76.5914C57.9131 75.6485 57.5236 74.1414 57.5236 72.0701C57.5236 67.9585 59.2846 65.9027 62.8066 65.9027C66.2149 65.9027 67.9191 67.6726 67.9191 71.2123L67.7487 73.0208H60.2016C60.2178 73.9791 60.4369 74.6824 60.8589 75.1307C61.2809 75.5789 62.0681 75.803 63.2204 75.803C64.3728 75.803 65.5576 75.7567 66.7749 75.6639ZM65.3142 71.0732C65.3142 69.9293 65.1194 69.1333 64.7299 68.685C64.3566 68.2213 63.7155 67.9895 62.8066 67.9895C61.8977 67.9895 61.2322 68.229 60.8102 68.7082C60.4045 69.1874 60.1935 69.9757 60.1773 71.0732H65.3142Z" fill="#151617"/>
<path d="M80.696 77.7506V70.8877H73.4897V77.7506H70.7873V61.8684H73.4897V68.6387H80.696V61.8684H83.4226V77.7506H80.696Z" fill="#151617"/>
<path d="M95.4474 75.6639L96.1291 75.5944L96.1778 77.4724C94.3275 77.8279 92.6883 78.0057 91.26 78.0057C89.4584 78.0057 88.16 77.5342 87.3647 76.5914C86.5857 75.6485 86.1961 74.1414 86.1961 72.0701C86.1961 67.9585 87.9571 65.9027 91.4791 65.9027C94.8875 65.9027 96.5917 67.6726 96.5917 71.2123L96.4212 73.0208H88.8741C88.8904 73.9791 89.1095 74.6824 89.5315 75.1307C89.9535 75.5789 90.7406 75.803 91.893 75.803C93.0453 75.803 94.2302 75.7567 95.4474 75.6639ZM93.9867 71.0732C93.9867 69.9293 93.7919 69.1333 93.4024 68.685C93.0291 68.2213 92.388 67.9895 91.4791 67.9895C90.5702 67.9895 89.9048 68.229 89.4828 68.7082C89.077 69.1874 88.866 69.9757 88.8498 71.0732H93.9867Z" fill="#151617"/>
<path d="M109.076 61.3351V77.7506H106.447V77.1478C105.262 77.7197 104.175 78.0057 103.185 78.0057C101.594 78.0057 100.426 77.5497 99.679 76.6377C98.9486 75.7258 98.5834 74.1955 98.5834 72.047C98.5834 69.8984 98.9892 68.3372 99.8007 67.3634C100.628 66.3896 101.911 65.9027 103.647 65.9027C104.232 65.9027 105.157 66.0032 106.423 66.2041V61.3351H109.076ZM106.009 75.3393L106.423 75.177V68.3141C105.449 68.1595 104.548 68.0822 103.72 68.0822C102.081 68.0822 101.261 69.3806 101.261 71.9774C101.261 73.3995 101.448 74.3887 101.821 74.9452C102.211 75.4862 102.82 75.7567 103.647 75.7567C104.475 75.7567 105.262 75.6176 106.009 75.3393Z" fill="#151617"/>
<path d="M122.93 79.3273C122.93 81.8623 121.007 83.1297 117.16 83.1297C115.31 83.1297 113.938 82.8902 113.046 82.411C112.153 81.9318 111.707 81.0585 111.707 79.791C111.707 79.2191 111.853 78.7244 112.145 78.3071C112.437 77.9052 112.908 77.4647 113.557 76.9855C113.021 76.6455 112.753 76.0813 112.753 75.293C112.753 74.9838 112.973 74.4815 113.411 73.7859L113.63 73.4381C112.461 72.7734 111.877 71.6142 111.877 69.9602C111.877 68.5691 112.315 67.5489 113.192 66.8997C114.068 66.2505 115.253 65.9259 116.746 65.9259C117.46 65.9259 118.166 66.0032 118.864 66.1578L119.229 66.2273L123.003 66.1346V68.1749L120.982 68.059C121.42 68.6 121.64 69.2338 121.64 69.9602C121.64 71.475 121.234 72.5261 120.422 73.1135C119.627 73.6854 118.377 73.9714 116.673 73.9714C116.251 73.9714 115.894 73.9405 115.602 73.8786C115.375 74.4042 115.261 74.8138 115.261 75.1075C115.261 75.3857 115.407 75.5789 115.699 75.6871C116.008 75.7953 116.738 75.8571 117.89 75.8726C119.822 75.8881 121.145 76.1354 121.859 76.6145C122.573 77.0937 122.93 77.998 122.93 79.3273ZM114.312 79.5591C114.312 80.1001 114.539 80.4866 114.993 80.7184C115.448 80.9503 116.227 81.0662 117.33 81.0662C119.294 81.0662 120.276 80.5329 120.276 79.4664C120.276 78.8636 120.098 78.4771 119.741 78.3071C119.4 78.1525 118.71 78.0675 117.671 78.0521L115.285 77.9129C114.928 78.1912 114.677 78.4462 114.531 78.6781C114.385 78.9254 114.312 79.2191 114.312 79.5591ZM114.506 69.9602C114.506 70.6713 114.685 71.1968 115.042 71.5369C115.399 71.8615 115.975 72.0238 116.77 72.0238C117.566 72.0238 118.134 71.8615 118.475 71.5369C118.832 71.1968 119.01 70.6713 119.01 69.9602C119.01 69.2492 118.832 68.7314 118.475 68.4068C118.118 68.0667 117.541 67.8967 116.746 67.8967C115.253 67.8967 114.506 68.5846 114.506 69.9602Z" fill="#151617"/>
<path d="M133.749 75.6639L134.43 75.5944L134.479 77.4724C132.629 77.8279 130.99 78.0057 129.561 78.0057C127.76 78.0057 126.461 77.5342 125.666 76.5914C124.887 75.6485 124.498 74.1414 124.498 72.0701C124.498 67.9585 126.259 65.9027 129.78 65.9027C133.189 65.9027 134.893 67.6726 134.893 71.2123L134.723 73.0208H127.176C127.192 73.9791 127.411 74.6824 127.833 75.1307C128.255 75.5789 129.042 75.803 130.194 75.803C131.347 75.803 132.532 75.7567 133.749 75.6639ZM132.288 71.0732C132.288 69.9293 132.093 69.1333 131.704 68.685C131.33 68.2213 130.689 67.9895 129.78 67.9895C128.872 67.9895 128.206 68.229 127.784 68.7082C127.378 69.1874 127.167 69.9757 127.151 71.0732H132.288Z" fill="#151617"/>
<path d="M140.098 77.7506H137.445V61.3351H140.098V66.7606C141.299 66.1887 142.411 65.9027 143.434 65.9027C145.057 65.9027 146.16 66.3433 146.745 67.2243C147.345 68.0899 147.646 69.5274 147.646 71.5369V77.7506H144.992V71.6064C144.992 70.3544 144.854 69.4656 144.578 68.9401C144.302 68.4145 143.718 68.1517 142.825 68.1517C142.046 68.1517 141.267 68.2754 140.488 68.5227L140.098 68.6618V77.7506Z" fill="#151617"/>
<path d="M151.392 67.4098C152.236 66.4051 153.632 65.9027 155.58 65.9027C157.527 65.9027 158.915 66.4051 159.743 67.4098C160.587 68.4145 161.009 69.9216 161.009 71.931C161.009 73.9405 160.603 75.4553 159.791 76.4754C158.98 77.4956 157.576 78.0057 155.58 78.0057C153.583 78.0057 152.179 77.4956 151.368 76.4754C150.556 75.4553 150.151 73.9405 150.151 71.931C150.151 69.9216 150.565 68.4145 151.392 67.4098ZM153.389 74.9452C153.762 75.5635 154.492 75.8726 155.58 75.8726C156.667 75.8726 157.397 75.5635 157.771 74.9452C158.144 74.3269 158.331 73.3144 158.331 71.9078C158.331 70.5012 158.128 69.5043 157.722 68.9169C157.333 68.3295 156.618 68.0358 155.58 68.0358C154.541 68.0358 153.819 68.3295 153.413 68.9169C153.023 69.5043 152.829 70.5012 152.829 71.9078C152.829 73.3144 153.015 74.3269 153.389 74.9452Z" fill="#151617"/>
<path d="M174.284 79.3273C174.284 81.8623 172.36 83.1297 168.514 83.1297C166.664 83.1297 165.292 82.8902 164.399 82.411C163.507 81.9318 163.06 81.0585 163.06 79.791C163.06 79.2191 163.206 78.7244 163.499 78.3071C163.791 77.9052 164.261 77.4647 164.911 76.9855C164.375 76.6455 164.107 76.0813 164.107 75.293C164.107 74.9838 164.326 74.4815 164.765 73.7859L164.984 73.4381C163.815 72.7734 163.231 71.6142 163.231 69.9602C163.231 68.5691 163.669 67.5489 164.545 66.8997C165.422 66.2505 166.607 65.9259 168.1 65.9259C168.814 65.9259 169.52 66.0032 170.218 66.1578L170.583 66.2273L174.357 66.1346V68.1749L172.336 68.059C172.774 68.6 172.993 69.2338 172.993 69.9602C172.993 71.475 172.588 72.5261 171.776 73.1135C170.981 73.6854 169.731 73.9714 168.027 73.9714C167.605 73.9714 167.248 73.9405 166.956 73.8786C166.728 74.4042 166.615 74.8138 166.615 75.1075C166.615 75.3857 166.761 75.5789 167.053 75.6871C167.361 75.7953 168.092 75.8571 169.244 75.8726C171.176 75.8881 172.498 76.1354 173.212 76.6145C173.927 77.0937 174.284 77.998 174.284 79.3273ZM165.665 79.5591C165.665 80.1001 165.893 80.4866 166.347 80.7184C166.802 80.9503 167.581 81.0662 168.684 81.0662C170.648 81.0662 171.63 80.5329 171.63 79.4664C171.63 78.8636 171.452 78.4771 171.094 78.3071C170.754 78.1525 170.064 78.0675 169.025 78.0521L166.639 77.9129C166.282 78.1912 166.031 78.4462 165.884 78.6781C165.738 78.9254 165.665 79.2191 165.665 79.5591ZM165.86 69.9602C165.86 70.6713 166.039 71.1968 166.396 71.5369C166.753 71.8615 167.329 72.0238 168.124 72.0238C168.92 72.0238 169.488 71.8615 169.828 71.5369C170.186 71.1968 170.364 70.6713 170.364 69.9602C170.364 69.2492 170.186 68.7314 169.828 68.4068C169.471 68.0667 168.895 67.8967 168.1 67.8967C166.607 67.8967 165.86 68.5846 165.86 69.9602Z" fill="#151617"/>
<path d="M8.6475 59.2583L8.93713 64.2198C8.93713 65.8869 8.6475 67.0909 8.06824 67.8318C7.48898 68.5728 6.2753 69.1814 4.42719 69.6577C6.24771 70.1075 7.44761 70.7426 8.02686 71.5629C8.63371 72.3568 8.93713 73.6005 8.93713 75.294L8.6475 79.938C8.6475 81.0759 8.90954 81.9491 9.43363 82.5577C9.95772 83.1928 10.9369 83.55 12.3713 83.6294V87.2811C9.41984 87.1752 7.32348 86.5931 6.08221 85.5346C4.86853 84.5026 4.26169 82.7958 4.26169 80.4143L4.55131 75.6115C4.55131 73.574 3.03421 72.1583 0 71.3645V67.9906C1.57227 67.6466 2.717 67.1571 3.43417 66.522C4.17893 65.8605 4.55131 65.0137 4.55131 63.9817L4.26169 58.9408C4.26169 56.4534 4.86853 54.7069 6.08221 53.7014C7.32348 52.6694 9.43363 52.1004 12.4127 51.9946L12.4541 55.6463C10.9921 55.7521 9.98531 56.0961 9.43363 56.6783C8.90954 57.2604 8.6475 58.1204 8.6475 59.2583Z" fill="#151617"/>
<path d="M183.353 79.938L183.063 75.294C183.063 73.6005 183.353 72.3568 183.932 71.5629C184.539 70.7426 185.752 70.1075 187.573 69.6577C185.725 69.1814 184.511 68.5728 183.932 67.8318C183.353 67.0909 183.063 65.8869 183.063 64.2198L183.353 59.2583C183.353 58.1204 183.077 57.2604 182.525 56.6783C182.001 56.0961 181.008 55.7521 179.546 55.6463L179.587 51.9946C182.566 52.1004 184.663 52.6694 185.876 53.7014C187.118 54.7069 187.738 56.4534 187.738 58.9408L187.449 63.9817C187.449 65.0137 187.807 65.8605 188.524 66.522C189.269 67.1571 190.428 67.6466 192 67.9906V71.3645C188.966 72.1583 187.449 73.574 187.449 75.6115L187.738 80.4143C187.738 82.7958 187.118 84.5026 185.876 85.5346C184.663 86.5931 182.58 87.1752 179.629 87.2811V83.6294C181.063 83.55 182.042 83.1928 182.566 82.5577C183.09 81.9491 183.353 81.0759 183.353 79.938Z" fill="#151617"/>
<path d="M33.1243 54.0703V16.84L46.3063 1.14053L33.1243 54.0703Z" fill="#151617"/>
<path d="M38.263 52.276L50.3279 14.5972L63.7333 5.6261L38.263 52.276Z" fill="#151617"/>
<path d="M45.1892 50.9304L63.7333 20.4285L77.5855 14.5972L45.1892 50.9304Z" fill="#151617"/>
<path d="M52.1153 47.3419L75.5747 26.484L88.3099 22.2227L52.1153 47.3419Z" fill="#151617"/>
<path d="M63.7333 47.3419L82.2774 34.558L96.3531 31.6424L87.1928 37.6979L63.7333 47.3419Z" fill="#151617"/>
<path d="M74.681 48.4633L89.427 42.1835H101.939L92.7783 45.5477L74.681 48.4633Z" fill="#151617"/>
<path d="M87.1928 50.9304L99.2576 48.4633H108.195L99.2576 50.9304H87.1928Z" fill="#151617"/>
<path d="M96.3531 54.0703L104.396 52.276L116.238 54.0703H96.3531Z" fill="#151617"/>
<path d="M30.6666 54.0703L23.7405 36.5765L28.6558 26.484L30.6666 54.0703Z" fill="#151617"/>
<path d="M26.4216 54.0703L19.7189 52.276L21.2829 42.8563L26.4216 54.0703Z" fill="#151617"/>
</svg>
