<svg width="18" height="18" viewBox="0 0 18 18" fill="none" xmlns="http://www.w3.org/2000/svg">
<path d="M0 0.75V5.25H0.75V17.25H17.25V5.25H18V0.75H0ZM1.5 2.25H16.5V3.75H1.5V2.25ZM2.25 5.25H15.75V15.75H2.25V5.25ZM6.60975 6.75C6.1965 6.7875 5.89125 7.15725 5.9295 7.5705C5.96775 7.983 6.33675 8.28825 6.75 8.25H11.25C11.52 8.253 11.7712 8.112 11.9093 7.878C11.9755 7.76302 12.0103 7.63268 12.0103 7.5C12.0103 7.36732 11.9755 7.23698 11.9093 7.122C11.7712 6.888 11.5192 6.747 11.25 6.75H6.609H6.60975Z" fill="#218DFF"/>
</svg>
