<svg width="22" height="22" viewBox="0 0 22 22" fill="none" xmlns="http://www.w3.org/2000/svg">
<path d="M8 0.5C5.10875 0.5 2.75 2.85875 2.75 5.75C2.75 7.5575 3.6725 9.1625 5.0705 10.1097C2.39525 11.2572 0.5 13.9122 0.5 17H2C2 13.6775 4.6775 11 8 11C9.03125 11 9.992 11.27 10.8358 11.7267C9.9721 12.7947 9.50065 14.1265 9.5 15.5C9.5 18.8045 12.1955 21.5 15.5 21.5C18.8045 21.5 21.5 18.8045 21.5 15.5C21.5 12.1955 18.8045 9.5 15.5 9.5C14.236 9.50109 13.005 9.90312 11.984 10.6483C11.6471 10.4413 11.2945 10.261 10.9295 10.109C11.643 9.62733 12.2276 8.97815 12.6321 8.21824C13.0367 7.45834 13.2488 6.61087 13.25 5.75C13.25 2.85875 10.8912 0.5 8 0.5ZM8 2C10.0798 2 11.75 3.67025 11.75 5.75C11.75 7.82975 10.0798 9.5 8 9.5C5.92025 9.5 4.25 7.82975 4.25 5.75C4.25 3.67025 5.92025 2 8 2ZM15.5 11C17.993 11 20 13.007 20 15.5C20 17.993 17.993 20 15.5 20C13.007 20 11 17.993 11 15.5C11 13.007 13.007 11 15.5 11ZM14.75 12.5V14.75H12.5V16.25H14.75V18.5H16.25V16.25H18.5V14.75H16.25V12.5H14.75Z" fill="#218DFF"/>
</svg>
