<svg width="18" height="18" viewBox="0 0 18 18" fill="none" xmlns="http://www.w3.org/2000/svg">
<path d="M9 1.51316e-08C5.16525 1.51316e-08 1.96275 2.37 0.65625 5.71875L2.03925 6.28125C3.132 3.48075 5.7825 1.5 9 1.5C11.4315 1.5 13.5997 2.6925 14.9535 4.5H12V6H17.25V0.75H15.75V3.0705C14.9095 2.10623 13.8722 1.33324 12.7078 0.803588C11.5435 0.273939 10.2792 -7.43478e-05 9 1.51316e-08ZM15.9608 11.7188C14.868 14.5192 12.2175 16.5 9 16.5C6.54225 16.5 4.383 15.2902 3.02325 13.5H6V12H0.75V17.25H2.25V14.9295C3.891 16.7895 6.29625 18 9 18C12.8348 18 16.0372 15.63 17.3438 12.2812L15.9608 11.7188Z" fill="#218DFF"/>
</svg>
