<svg width="16" height="20" viewBox="0 0 16 20" fill="none" xmlns="http://www.w3.org/2000/svg">
<path d="M0.5 0.25V19.75H15.5V5.1955L15.2892 4.96075L10.7892 0.46075L10.5545 0.25H0.5ZM2 1.75H9.5V6.25H14V18.25H2V1.75ZM11 2.8285L12.9222 4.75H11V2.8285ZM8 7.75L6.5 16.75H8L9.5 7.75H8ZM5.16425 9.53125L3.28925 11.7812L2.891 12.25L3.2885 12.7188L5.1635 14.9688L6.33575 14.0312L4.859 12.25L6.3365 10.4688L5.16425 9.53125ZM10.8358 9.53125L9.66425 10.4688L11.1403 12.25L9.66425 14.0312L10.8358 14.9688L12.7108 12.7188L13.1097 12.25L12.7108 11.7812L10.8358 9.53125Z" fill="#218DFF"/>
</svg>
