<svg width="16" height="8" viewBox="0 0 16 8" fill="none" xmlns="http://www.w3.org/2000/svg">
<path d="M8 0C3.832 0 0.625003 3.672 0.625003 3.672L0.328003 4L0.625003 4.328C0.625003 4.328 3.549 7.662 7.4375 7.969C7.623 7.992 7.8085 8 8 8C8.1915 8 8.377 7.992 8.5625 7.9685C12.451 7.662 15.375 4.3285 15.375 4.3285L15.672 4L15.375 3.672C15.375 3.672 12.168 0 8 0ZM8 1C9.1015 1 10.117 1.301 11 1.703C11.3185 2.2305 11.5 2.838 11.5 3.5C11.5021 4.36189 11.1859 5.19421 10.612 5.83729C10.0382 6.48036 9.24708 6.88889 8.3905 6.9845C8.3805 6.9865 8.369 6.9825 8.3595 6.9845C8.24 6.99 8.121 7 8 7C7.867 7 7.7385 6.992 7.6095 6.9845C6.75293 6.88889 5.96182 6.48036 5.38796 5.83729C4.81409 5.19421 4.49789 4.36189 4.5 3.5C4.5 2.8475 4.676 2.24 4.9845 1.7185H4.969C5.8585 1.3085 6.8865 1 8 1ZM8 2C7.60204 2.00013 7.22044 2.15835 6.93914 2.43984C6.65783 2.72133 6.49987 3.10304 6.5 3.501C6.50013 3.89896 6.65835 4.28056 6.93984 4.56187C7.22133 4.84317 7.60304 5.00113 8.001 5.001C8.19805 5.00094 8.39316 4.96206 8.57518 4.88659C8.7572 4.81112 8.92258 4.70054 9.06187 4.56116C9.20116 4.42178 9.31163 4.25633 9.38697 4.07425C9.46232 3.89218 9.50107 3.69705 9.501 3.5C9.50094 3.30295 9.46206 3.10785 9.38659 2.92582C9.31112 2.7438 9.20054 2.57842 9.06116 2.43913C8.92178 2.29984 8.75633 2.18937 8.57426 2.11403C8.39218 2.03868 8.19705 1.99993 8 2ZM3.625 2.469C3.54371 2.8067 3.50177 3.15266 3.5 3.5C3.5 4.377 3.75 5.1975 4.1875 5.8905C3.2999 5.37053 2.48542 4.73479 1.7655 4C2.33224 3.42824 2.95523 2.91564 3.625 2.469ZM12.375 2.469C13.0448 2.91549 13.6677 3.42842 14.2345 4C13.5146 4.73479 12.7001 5.37053 11.8125 5.8905C12.2635 5.17489 12.5019 4.34587 12.5 3.5C12.5 3.1425 12.453 2.8015 12.375 2.469Z" fill="#38EF76"/>
</svg>
