<svg width="18" height="18" viewBox="0 0 18 18" fill="none" xmlns="http://www.w3.org/2000/svg">
<path d="M0 0V13.5H4.5V18H18V4.5H13.5V0H0ZM1.5 1.5H12V4.92225L4.9215 12H1.5V1.5ZM5.25 3V3.75H3V5.25H6.7035C6.606 6.111 6.34275 6.79125 5.90625 7.266C5.66928 7.18938 5.44142 7.08702 5.22675 6.96075C4.6995 6.64725 4.5 6.3135 4.5 6H3C3 6.89325 3.5505 7.638 4.28925 8.133C3.86476 8.21688 3.43266 8.25609 3 8.25V9.75C4.32975 9.75 5.4375 9.4455 6.28125 8.883C6.6735 8.9505 7.0725 9 7.5 9V7.59375C7.90725 6.91125 8.124 6.114 8.2035 5.25H9V3.75H6.75V3H5.25ZM13.0785 6H16.5V16.5H6V13.0778L13.0785 6ZM12 7.383L11.2965 9.516L9.7965 14.016L9.75 14.133V15H11.25V14.3438L11.2733 14.25H12.7267L12.75 14.3438V15H14.25V14.133L14.2028 14.0153L12.7028 9.51525L12 7.383ZM12 12.0938L12.2108 12.75H11.7892L12 12.0938Z" fill="#151617"/>
</svg>
