<svg width="98" height="54" viewBox="0 0 98 54" fill="none" xmlns="http://www.w3.org/2000/svg">
<path d="M14.1243 53.0703V15.84L27.3063 0.140533L14.1243 53.0703Z" fill="#151617"/>
<path d="M19.263 51.276L31.3279 13.5972L44.7333 4.6261L19.263 51.276Z" fill="#151617"/>
<path d="M26.1892 49.9304L44.7333 19.4285L58.5855 13.5972L26.1892 49.9304Z" fill="#151617"/>
<path d="M33.1153 46.3419L56.5747 25.484L69.3099 21.2227L33.1153 46.3419Z" fill="#151617"/>
<path d="M44.7333 46.3419L63.2774 33.558L77.3531 30.6424L68.1928 36.6979L44.7333 46.3419Z" fill="#151617"/>
<path d="M55.681 47.4633L70.427 41.1835H82.9387L73.7783 44.5477L55.681 47.4633Z" fill="#151617"/>
<path d="M68.1928 49.9304L80.2576 47.4633H89.1946L80.2576 49.9304H68.1928Z" fill="#151617"/>
<path d="M77.3531 53.0703L85.3964 51.276L97.2378 53.0703H77.3531Z" fill="#151617"/>
<path d="M11.6666 53.0703L4.74051 35.5765L9.65582 25.484L11.6666 53.0703Z" fill="#151617"/>
<path d="M7.42159 53.0703L0.718887 51.276L2.28285 41.8563L7.42159 53.0703Z" fill="#151617"/>
</svg>
