<svg width="24" height="12" viewBox="0 0 24 12" fill="none" xmlns="http://www.w3.org/2000/svg">
<path d="M12 0C5.748 0 0.937504 5.508 0.937504 5.508L0.492004 6L0.937504 6.492C0.937504 6.492 5.3235 11.493 11.1563 11.9535C11.4345 11.988 11.7128 12 12 12C12.2873 12 12.5655 11.988 12.8438 11.9528C18.6765 11.493 23.0625 6.49275 23.0625 6.49275L23.508 6L23.0625 5.508C23.0625 5.508 18.252 0 12 0ZM12 1.5C13.6523 1.5 15.1755 1.9515 16.5 2.5545C16.9778 3.34575 17.25 4.257 17.25 5.25C17.2532 6.54284 16.7789 7.79132 15.9181 8.75593C15.0573 9.72053 13.8706 10.3333 12.5858 10.4767C12.5708 10.4797 12.5535 10.4738 12.5393 10.4767C12.36 10.485 12.1815 10.5 12 10.5C11.8005 10.5 11.6078 10.488 11.4143 10.4767C10.1294 10.3333 8.94273 9.72053 8.08194 8.75593C7.22114 7.79132 6.74683 6.54284 6.75 5.25C6.75 4.27125 7.014 3.36 7.47675 2.57775H7.4535C8.78775 1.96275 10.3298 1.5 12 1.5ZM12 3C11.4031 3.0002 10.8307 3.23752 10.4087 3.65976C9.98675 4.082 9.7498 4.65456 9.75 5.2515C9.7502 5.84844 9.98752 6.42084 10.4098 6.8428C10.832 7.26476 11.4046 7.5017 12.0015 7.5015C12.2971 7.5014 12.5897 7.44309 12.8628 7.32989C13.1358 7.21668 13.3839 7.05081 13.5928 6.84174C13.8017 6.63267 13.9674 6.38449 14.0805 6.11138C14.1935 5.83827 14.2516 5.54557 14.2515 5.25C14.2514 4.95443 14.1931 4.66177 14.0799 4.38873C13.9667 4.1157 13.8008 3.86763 13.5917 3.6587C13.3827 3.44977 13.1345 3.28406 12.8614 3.17104C12.5883 3.05802 12.2956 2.9999 12 3ZM5.4375 3.7035C5.31557 4.21004 5.25265 4.72899 5.25 5.25C5.25 6.5655 5.625 7.79625 6.28125 8.83575C4.94985 8.0558 3.72814 7.10218 2.64825 6C3.49835 5.14237 4.43284 4.37272 5.4375 3.70275V3.7035ZM18.5625 3.7035C19.5671 4.37323 20.5016 5.14263 21.3518 6C20.2719 7.10218 19.0502 8.0558 17.7188 8.83575C18.3953 7.76233 18.7529 6.51881 18.75 5.25C18.75 4.71375 18.6795 4.2015 18.5625 3.70275V3.7035Z" fill="#151617"/>
</svg>
