<svg width="14" height="14" viewBox="0 0 14 14" fill="none" xmlns="http://www.w3.org/2000/svg">
<path d="M7 0.5C6.4475 0.5 6 0.9475 6 1.5C6 1.869 6.201 2.1855 6.5 2.3595V3.5H4C2.625 3.5 1.5 4.625 1.5 6V7H0V11H1.5V13.5H12.5V11H14V7H12.5V6C12.5 4.625 11.375 3.5 10 3.5H7.5V2.3595C7.799 2.1855 8 1.8695 8 1.5C8 0.9475 7.5525 0.5 7 0.5ZM4 4.5H10C10.834 4.5 11.5 5.166 11.5 6V12.5H10.5V10H3.5V12.5H2.5V6C2.5 5.166 3.166 4.5 4 4.5ZM5 6.5C4.73478 6.5 4.48043 6.60536 4.29289 6.79289C4.10536 6.98043 4 7.23478 4 7.5C4 7.76522 4.10536 8.01957 4.29289 8.20711C4.48043 8.39464 4.73478 8.5 5 8.5C5.26522 8.5 5.51957 8.39464 5.70711 8.20711C5.89464 8.01957 6 7.76522 6 7.5C6 7.23478 5.89464 6.98043 5.70711 6.79289C5.51957 6.60536 5.26522 6.5 5 6.5ZM9 6.5C8.73478 6.5 8.48043 6.60536 8.29289 6.79289C8.10536 6.98043 8 7.23478 8 7.5C8 7.76522 8.10536 8.01957 8.29289 8.20711C8.48043 8.39464 8.73478 8.5 9 8.5C9.26522 8.5 9.51957 8.39464 9.70711 8.20711C9.89464 8.01957 10 7.76522 10 7.5C10 7.23478 9.89464 6.98043 9.70711 6.79289C9.51957 6.60536 9.26522 6.5 9 6.5ZM1 8H1.5V10H1V8ZM12.5 8H13V10H12.5V8ZM4.5 11H5.5V12.5H4.5V11ZM6.5 11H7.5V12.5H6.5V11ZM8.5 11H9.5V12.5H8.5V11Z" fill="#38EF76"/>
</svg>
